{"title":"Tron Legacy-720p MP4 AAC x264 BRRip 2010-CC","uid":7465745,"size":2513873784,"categoryP":"video","categoryS":"hd___movies","magnet":"?xt=urn:btih:f59e0b45c7a76ac473946de357eaef4cc60cf2e5&amp;dn=Tron+Legacy-720p+MP4+AAC+x264+BRRip+2010-CC&amp;tr=udp%3A%2F%2Ftracker.openbittorrent.com%3A80&amp;tr=udp%3A%2F%2Fopen.demonii.com%3A1337&amp;tr=udp%3A%2F%2Ftracker.coppersurfer.tk%3A6969&amp;tr=udp%3A%2F%2Fexodus.desync.com%3A6969","seeders":1,"leechers":1,"uploader":"Caveman44","files":-1,"time":1342988582,"description":" &lt;a href=&quot;http://www.imdb.com/title/tt1104001/&quot; rel=&quot;nofollow&quot; target=&quot;_NEW&quot;&gt;http://www.imdb.com/title/tt1104001/&lt;/a&gt;\n\nSource: Tron.Legacy.2010.BluRay.720p.DTS.x264-CHD Thanks!\n\nSubs: Arabic, Brazilian, Bulgarian, Croatian, Danish, Dutch, English, Farsi-Persian, Finnish, French, Greek, Hebrew, Hungarian, Indonesian, Italian, Malay, Polish, Portuguese, Romanian, Russian, Slovenian, Spanish, Swedish, Turkish and Vietnamese.\n\nSample and Screens included.\n\nGeneral\nComplete name                    : Tron Legacy-720p MP4 AAC x264 BRRip 2010-CC.mp4\nFormat                           : MPEG-4\nFormat profile                   : Base Media\nCodec ID                         : isom\nFile size                        : 2.31 GiB\nDuration                         : 2h 5mn\nOverall bit rate                 : 2 643 Kbps\nEncoded date                     : UTC 2012-07-21 13:37:06\n\nVideo\nID                               : 1\nFormat                           : AVC\nFormat/Info                      : Advanced Video Codec\nFormat profile                   : &lt;a class=&quot;__cf_email__&quot; href=&quot;/cdn-cgi/l/email-protection&quot; data-cfemail=&quot;6b23020c032b2758455a&quot;&gt;[email&amp;#160;protected]&lt;/a&gt;&lt;script cf-hash='f9e31' type=&quot;text/javascript&quot;&gt;\n/* &lt;![CDATA[ */!function(){try{var t=&quot;currentScript&quot;in document?document.currentScript:function(){for(var t=document.getElementsByTagName(&quot;script&quot;),e=t.length;e--;)if(t[e].getAttribute(&quot;cf-hash&quot;))return t[e]}();if(t&amp;&amp;t.previousSibling){var e,r,n,i,c=t.previousSibling,a=c.getAttribute(&quot;data-cfemail&quot;);if(a){for(e=&quot;&quot;,r=parseInt(a.substr(0,2),16),n=2;a.length-n;n+=2)i=parseInt(a.substr(n,2),16)^r,e+=String.fromCharCode(i);e=document.createTextNode(e),c.parentNode.replaceChild(e,c)}}}catch(u){}}();/* ]]&gt; */&lt;/script&gt;\nFormat settings, CABAC           : Yes\nFormat settings, ReFrames        : 5 frames\nCodec ID                         : avc1\nCodec ID/Info                    : Advanced Video Coding\nDuration                         : 2h 5mn\nBit rate mode                    : Variable\nBit rate                         : 2 255 Kbps\nNominal bit rate                 : 2 271 Kbps\nMaximum bit rate                 : 12.8 Mbps\nWidth                            : 1 280 pixels\nHeight                           : 544 pixels\nDisplay aspect ratio             : 2.35:1\nFrame rate mode                  : Variable\nFrame rate                       : 23.976 fps\nMinimum frame rate               : 15.873 fps\nMaximum frame rate               : 24.390 fps\nResolution                       : 24 bits\nColorimetry                      : 4:2:0\nScan type                        : Progressive\nBits/(Pixel*Frame)               : 0.135\nStream size                      : 1.97 GiB (85%)\nWriting library                  : x264 core 112\n\nAudio\nID                               : 2\nFormat                           : AAC\nFormat/Info                      : Advanced Audio Codec\nFormat version                   : Version 4\nFormat profile                   : LC\nFormat settings, SBR             : No\nCodec ID                         : 40\nDuration                         : 2h 5mn\nBit rate mode                    : Variable\nBit rate                         : 384 Kbps\nMaximum bit rate                 : 599 Kbps\nChannel(s)                       : 6 channels\nChannel positions                : Front: L C R, Rear: L R, LFE\nSampling rate                    : 48.0 KHz\nResolution                       : 16 bits\nStream size                      : 343 MiB (15%)\nLanguage                         : English\n\nEnjoy...\n\nRequested by Clair.","torrent":{"xt":"urn:btih:f59e0b45c7a76ac473946de357eaef4cc60cf2e5","amp;dn":"Tron+Legacy-720p+MP4+AAC+x264+BRRip+2010-CC","amp;tr":["udp%3A%2F%2Ftracker.openbittorrent.com%3A80","udp%3A%2F%2Fopen.demonii.com%3A1337","udp%3A%2F%2Ftracker.coppersurfer.tk%3A6969","udp%3A%2F%2Fexodus.desync.com%3A6969"],"infoHash":"f59e0b45c7a76ac473946de357eaef4cc60cf2e5","infoHashBuffer":{"type":"Buffer","data":[245,158,11,69,199,167,106,196,115,148,109,227,87,234,239,76,198,12,242,229]},"announce":[],"urlList":[]}}